# xmcd
#
# Track frame offsets: 
#        150
#        11626
#        23873
#        33716
#        46353
#        58807
#        69663
#        87060
#        99229
#        112297
#        125751
#        136590
#        149802
#        162344
#        180528
#        190875
#        201442
#        215950
#        230552
#        243616
#
# Disc length: 3396 seconds
#
# Revision: 1
# Processed by: cddbd v1.5.2PL0 Copyright (c) Steve Scherf et al.
# Submitted via: ExactAudioCopyFreeDBPlugin 1.0
#
DISCID=380d4214
DTITLE=John Lee Hooker - The Best Of (Boom Boom) - CD1
DYEAR=2010
DGENRE=Blues
TTITLE0=Boom Boom (1961)
TTITLE1=I'm in the Mood (1959)
TTITLE2=Dimples (1956)
TTITLE3=Hobo Blues (1959)
TTITLE4=Huckle Up (1950)
TTITLE5=No Shoes (1960)
TTITLE6=Blues Before Sunrise (1960)
TTITLE7=Mad Man Blues (1950)
TTITLE8=I'm So Exited (1957)
TTITLE9=Baby Lee (1956)
TTITLE10=Send me your Pillow (1964)
TTITLE11=Hoogie Boogie (1949)
TTITLE12=I got a Letter (This Morning) (1961)
TTITLE13=House Rent Boogie (1980)
TTITLE14=Big Soul (1962)
TTITLE15=Old Time Shimmy (1963)
TTITLE16=Sugar Mama (1952)
TTITLE17=Do the Boogie (1949)
TTITLE18=I'm goin' Upstairs (1961)
TTITLE19=Good Rocking Mama (1962)
EXTD=
EXTT0=
EXTT1=
EXTT2=
EXTT3=
EXTT4=
EXTT5=
EXTT6=
EXTT7=
EXTT8=
EXTT9=
EXTT10=
EXTT11=
EXTT12=
EXTT13=
EXTT14=
EXTT15=
EXTT16=
EXTT17=
EXTT18=
EXTT19=
PLAYORDER=
